<?xml version="1.0" standalone="no"?>
<!DOCTYPE svg PUBLIC "-//W3C//DTD SVG 20010904//EN"
 "http://www.w3.org/TR/2001/REC-SVG-20010904/DTD/svg10.dtd">
<svg version="1.0" xmlns="http://www.w3.org/2000/svg"
 width="500.000000pt" height="500.000000pt" viewBox="0 0 500.000000 500.000000"
 preserveAspectRatio="xMidYMid meet">
<metadata>
Created by potrace 1.11, written by Peter Selinger 2001-2013
</metadata>
<g transform="translate(0.000000,500.000000) scale(0.100000,-0.100000)"
fill="#000000" stroke="none">
<path d="M907 4912 c-28 -11 -57 -63 -57 -102 0 -24 27 -92 85 -210 53 -109
93 -207 106 -260 24 -93 24 -91 -21 -295 -31 -143 -25 -334 14 -450 65 -188
188 -312 375 -377 56 -20 86 -23 203 -23 l136 0 5 -40 c6 -45 150 -337 258
-525 123 -214 227 -361 409 -580 213 -255 597 -689 664 -749 68 -61 194 -155
470 -353 l130 -93 81 -245 c45 -135 95 -267 110 -294 41 -70 141 -168 204
-199 79 -39 169 -38 233 2 51 33 58 51 58 165 0 210 -130 399 -445 648 -70 55
-70 56 -103 154 -209 621 -504 1264 -791 1719 -231 368 -588 793 -681 811 -24
5 -29 10 -24 23 49 112 62 239 35 336 -47 168 -189 348 -395 500 -335 247
-923 490 -1059 437z m874 -560 c174 -118 295 -243 353 -362 26 -55 31 -76 31
-140 0 -68 -4 -81 -38 -145 -60 -110 -133 -202 -175 -224 -66 -33 -191 -70
-271 -80 -101 -13 -188 0 -267 39 -75 37 -126 91 -168 179 -30 65 -31 69 -31
216 0 124 4 167 24 248 29 118 26 246 -8 340 l-20 58 23 -18 c13 -10 97 -72
187 -138 214 -159 338 -296 374 -418 14 -46 14 -53 -3 -86 -22 -46 -87 -90
-132 -91 -50 0 -108 18 -131 41 -15 15 -19 33 -19 87 1 37 7 85 15 107 8 22
15 40 15 41 1 5 -182 85 -186 82 -16 -17 -47 -135 -51 -200 -7 -96 8 -158 53
-225 59 -86 144 -127 289 -140 65 -5 75 -3 140 28 92 44 185 135 208 203 25
72 22 153 -8 232 -54 142 -212 337 -361 444 -46 34 -84 63 -84 65 0 7 164 -90
241 -143z m565 -994 c402 -420 752 -998 1059 -1748 75 -182 157 -401 153 -406
-7 -6 -264 187 -334 250 -93 85 -603 669 -769 881 -147 189 -267 384 -416 678
l-80 159 73 75 c59 62 90 83 163 119 50 23 92 43 95 43 3 1 28 -23 56 -51z
m1745 -2872 c45 -63 89 -170 76 -183 -9 -9 -87 69 -113 112 -20 35 -74 175
-74 194 0 13 68 -62 111 -123z"/>
</g>
</svg>
